<svg width="23" height="19" viewBox="0 0 23 19" fill="none" xmlns="http://www.w3.org/2000/svg">
<path fill-rule="evenodd" clip-rule="evenodd" d="M4.78887 0.950012H11.3918C14.1529 0.950012 16.0807 2.85271 16.0807 5.57945V13.4206C16.0807 16.1473 14.1529 18.05 11.3918 18.05H4.78887C2.02776 18.05 0.0999985 16.1473 0.0999985 13.4206V5.57945C0.0999985 2.85271 2.02776 0.950012 4.78887 0.950012ZM20.5721 3.66205C21.0725 3.40743 21.6597 3.43405 22.1373 3.73497C22.615 4.03472 22.9 4.55554 22.9 5.12496V13.8758C22.9 14.4463 22.615 14.966 22.1373 15.2657C21.8763 15.4289 21.5844 15.5123 21.2903 15.5123C21.0452 15.5123 20.8001 15.4544 20.5709 15.3375L18.8826 14.4857C18.2579 14.1686 17.8703 13.532 17.8703 12.8249V6.17468C17.8703 5.46638 18.2579 4.82983 18.8826 4.51503L20.5721 3.66205Z" fill="#2C2D5B"/>
</svg>
